<svg version="1.1" id="Layer_1" xmlns="http://www.w3.org/2000/svg" xmlns:xlink="http://www.w3.org/1999/xlink" x="0px" y="0px"
	 width="100%" viewBox="0 0 1832 690" enable-background="new 0 0 1832 690" xml:space="preserve">
<path fill="#000000" opacity="1.000000" stroke="none" 
	d="
M1246.000000,691.000000 
	C830.666687,691.000000 415.833344,691.000000 1.000000,691.000000 
	C1.000000,461.000000 1.000000,231.000000 1.000000,1.000000 
	C611.666687,1.000000 1222.333374,1.000000 1833.000000,1.000000 
	C1833.000000,231.000000 1833.000000,461.000000 1833.000000,691.000000 
	C1637.500000,691.000000 1442.000000,691.000000 1246.000000,691.000000 
M1235.000000,449.500000 
	C1235.000000,368.078186 1235.000000,286.656403 1235.000000,205.280853 
	C1215.370117,205.280853 1196.299438,205.280853 1176.649414,205.280853 
	C1176.649414,239.021683 1176.649414,272.484222 1176.649414,306.433960 
	C1175.611816,305.774567 1175.093506,305.610565 1174.835083,305.256805 
	C1168.295044,296.304413 1159.214600,290.789093 1149.101929,287.055298 
	C1132.958618,281.094788 1116.428345,280.543701 1099.537964,283.919037 
	C1072.672729,289.287750 1052.734741,303.914673 1040.081055,328.030121 
	C1028.585205,349.939178 1025.546997,373.476593 1027.915894,397.980927 
	C1029.457275,413.925781 1033.358765,429.024963 1040.996094,443.149139 
	C1048.936646,457.833801 1060.183350,469.303192 1074.961670,476.908752 
	C1092.286255,485.824799 1110.793091,487.695892 1130.023804,485.074860 
	C1150.862549,482.234650 1166.443359,471.630585 1177.917603,454.381409 
	C1178.720947,453.173859 1179.770752,452.130402 1180.705811,451.010590 
	C1181.470581,452.612640 1182.671509,454.148102 1182.927734,455.827698 
	C1184.408813,465.536194 1185.666870,475.278687 1187.041138,485.306854 
	C1203.443481,484.778839 1219.116089,484.274353 1235.000000,483.763062 
	C1235.000000,472.452972 1235.000000,461.476471 1235.000000,449.500000 
M1667.000000,319.500000 
	C1667.000000,281.407623 1667.000000,243.315231 1667.000000,205.285828 
	C1647.359985,205.285828 1628.289185,205.285828 1608.637695,205.285828 
	C1608.637695,239.029129 1608.637695,272.489136 1608.637695,306.746918 
	C1595.110107,290.118774 1577.642334,283.350891 1557.967407,282.206512 
	C1548.712402,281.668152 1539.199341,282.583923 1530.033936,284.172546 
	C1515.317505,286.723389 1502.299316,293.507721 1491.123657,303.441040 
	C1480.759888,312.652771 1473.324341,324.002747 1468.008545,336.788605 
	C1461.414673,352.648315 1459.779785,369.432922 1459.146240,386.305573 
	C1458.909790,392.600861 1460.226807,398.971771 1461.019897,405.285034 
	C1462.970947,420.813965 1467.747681,435.467804 1476.309570,448.569244 
	C1484.939941,461.775269 1496.330322,472.436615 1510.823975,478.832672 
	C1527.099976,486.015167 1544.308594,487.648651 1562.010010,485.077240 
	C1576.573242,482.961670 1589.518799,477.819672 1599.585205,466.820068 
	C1604.443726,461.510986 1608.779663,455.723633 1613.645508,449.795868 
	C1614.127563,450.856354 1614.807251,451.773895 1614.957031,452.771027 
	C1616.355713,462.080078 1617.956299,471.374756 1618.852295,480.735413 
	C1619.206177,484.432953 1620.547241,485.144623 1623.757202,485.039520 
	C1636.838257,484.611420 1649.924438,484.337708 1663.008423,483.993164 
	C1664.278687,483.959717 1665.546387,483.830627 1667.000000,483.733643 
	C1667.000000,429.111145 1667.000000,374.805573 1667.000000,319.500000 
M300.500000,323.000000 
	C283.404510,323.000000 266.308990,323.000000 249.288589,323.000000 
	C249.288589,300.354523 249.288589,278.283875 249.288589,255.819855 
	C289.312805,255.819855 329.049835,255.819855 368.709229,255.819855 
	C368.709229,239.017136 368.709229,222.612381 368.709229,206.288116 
	C308.684052,206.288116 248.950089,206.288116 189.281616,206.288116 
	C189.281616,298.974487 189.281616,391.372437 189.281616,483.716309 
	C209.302048,483.716309 229.039566,483.716309 249.170654,483.716309 
	C249.170654,446.363495 249.170654,409.292786 249.170654,371.828979 
	C283.970123,371.828979 318.374542,371.828979 352.713440,371.828979 
	C352.713440,355.358917 352.713440,339.287598 352.713440,323.000000 
	C335.451874,323.000000 318.475922,323.000000 300.500000,323.000000 
M774.348328,284.000000 
	C755.934204,284.000000 737.520142,284.000000 719.000000,284.000000 
	C719.000000,319.832062 719.024536,354.985138 718.957031,390.138031 
	C718.951111,393.212250 718.631836,396.350220 717.963196,399.348206 
	C713.859009,417.748749 705.494202,432.034088 684.653381,435.206512 
	C674.598267,436.737152 666.026428,433.971191 658.605042,427.892334 
	C650.336853,421.119904 647.080078,411.560608 647.046509,401.091949 
	C646.927368,363.931824 647.000000,326.771088 647.000000,289.610565 
	C647.000000,287.835541 647.000000,286.060516 647.000000,284.250549 
	C627.096741,284.250549 607.693726,284.250549 588.000000,284.250549 
	C588.000000,286.126556 588.000000,287.764771 588.000000,289.402985 
	C588.000000,326.730133 587.944519,364.057434 588.045288,401.384308 
	C588.066223,409.129700 588.112854,416.946136 589.116943,424.602722 
	C591.108093,439.786652 596.774292,453.671570 607.452332,464.826019 
	C627.468567,485.735352 652.888306,489.212189 679.665344,484.436218 
	C696.997559,481.344818 710.839355,471.691589 719.273743,455.437134 
	C720.152344,453.743805 722.280334,452.698792 724.057922,451.153625 
	C726.147644,463.248383 728.014893,474.055634 729.957764,485.300720 
	C746.314453,484.777649 762.123962,484.272034 777.999939,483.764313 
	C777.999939,417.968414 778.000061,352.649139 777.998901,287.329895 
	C777.998901,286.663544 778.255127,285.703888 777.918457,285.391998 
	C777.221069,284.745758 776.204590,284.443787 774.348328,284.000000 
M812.000000,350.500000 
	C812.000000,394.921722 812.000000,439.343445 812.000000,483.722076 
	C831.960205,483.722076 851.362793,483.722076 871.000000,483.722076 
	C871.000000,481.804077 871.000000,480.162018 871.000000,478.519928 
	C871.000000,445.694031 870.990784,412.868164 871.005066,380.042267 
	C871.010010,368.602570 873.858765,358.161804 880.653809,348.656342 
	C890.917419,334.298706 905.467529,330.716675 921.149353,333.855560 
	C925.963745,334.819183 930.950989,337.355530 934.744019,340.511780 
	C944.663818,348.766266 946.767334,360.697327 946.880554,372.664734 
	C947.214966,407.986877 947.000000,443.314270 947.000000,478.639587 
	C947.000000,480.390594 947.000000,482.141602 947.000000,483.662292 
	C966.747437,483.662292 985.817932,483.662292 1005.000000,483.662292 
	C1005.000000,443.008881 1005.181274,402.691589 1004.863342,362.378235 
	C1004.790527,353.139160 1004.023804,343.658447 1001.800964,334.730988 
	C995.786926,310.577087 981.532227,293.240173 957.117737,285.628418 
	C944.132568,281.579987 930.848694,280.944183 917.362488,282.957947 
	C899.732605,285.590485 885.291138,293.442963 875.029480,308.221130 
	C871.729492,312.973511 868.974243,318.104156 865.680298,323.539642 
	C865.305298,322.473999 865.089050,322.071442 865.024780,321.645874 
	C863.330811,310.423737 861.721619,299.188202 859.931641,287.981537 
	C859.355530,284.375000 857.500427,282.641663 853.239136,282.876221 
	C840.841980,283.558563 828.413086,283.662384 815.997009,284.006500 
	C814.726379,284.041718 813.458313,284.166870 812.000000,284.262726 
	C812.000000,306.219238 812.000000,327.859619 812.000000,350.500000 
M548.540527,309.025879 
	C545.581726,306.098969 542.905579,302.798187 539.615234,300.309723 
	C525.235657,289.434814 508.742218,283.512878 490.953400,282.166962 
	C474.587494,280.928680 458.377106,282.646332 442.530304,287.737518 
	C421.082428,294.628143 403.735016,307.059845 389.877625,324.621460 
	C373.016602,345.989563 366.648804,370.938049 366.236267,397.490051 
	C366.091980,406.776154 367.801575,416.333588 370.185333,425.365723 
	C375.063049,443.847931 384.677277,459.455200 400.900726,470.479462 
	C412.869324,478.612396 425.922943,483.303711 440.287079,485.102173 
	C454.478729,486.879028 468.630920,486.746613 482.446808,483.656067 
	C507.384674,478.077576 529.056946,466.517914 545.400024,446.163330 
	C552.436707,437.399506 557.870972,427.737701 561.946777,417.362396 
	C569.737000,397.531921 571.585693,377.007721 569.101196,355.857086 
	C567.037048,338.284851 560.152039,323.065033 548.540527,309.025879 
M1432.033325,449.401031 
	C1424.668945,439.192047 1417.304565,428.983063 1410.004517,418.863281 
	C1408.035156,420.277313 1406.428101,421.156006 1405.159546,422.384460 
	C1391.609619,435.506531 1375.453735,441.435364 1356.595093,441.091858 
	C1339.738770,440.784790 1326.343140,434.918976 1318.151855,419.585419 
	C1314.610474,412.956482 1312.207764,405.930084 1312.015625,398.000000 
	C1314.190063,398.000000 1315.838989,398.000000 1317.487793,398.000000 
	C1356.153809,398.000000 1394.820068,397.968292 1433.485840,398.058136 
	C1436.699341,398.065613 1438.282471,397.456726 1439.155640,393.890503 
	C1442.055176,382.048920 1444.716309,370.238342 1442.982666,357.947815 
	C1441.694092,348.811615 1441.646362,339.194580 1438.597412,330.667114 
	C1427.287598,299.035492 1404.410156,284.699402 1373.587158,282.101166 
	C1361.619019,281.092285 1349.651733,282.264038 1337.882080,284.987701 
	C1313.819580,290.556091 1293.868042,302.981323 1278.536011,322.139893 
	C1263.068115,341.468262 1255.817261,364.273499 1254.135864,388.730682 
	C1253.338867,400.323303 1253.867554,411.979980 1256.933472,423.419495 
	C1260.231689,435.726257 1265.225708,447.191742 1273.475708,456.876617 
	C1289.458496,475.639069 1310.773071,484.068817 1334.677490,485.845398 
	C1356.008545,487.430725 1377.149780,485.253021 1397.114380,476.888458 
	C1410.432373,471.308655 1422.572021,463.718445 1431.975220,452.422607 
	C1432.443481,451.860016 1432.326660,450.810425 1432.033325,449.401031 
z"/>
<path fill="#FFFFFF" opacity="1.000000" stroke="none" 
	d="
M1235.000000,450.000000 
	C1235.000000,461.476471 1235.000000,472.452972 1235.000000,483.763062 
	C1219.116089,484.274353 1203.443481,484.778839 1187.041138,485.306854 
	C1185.666870,475.278687 1184.408813,465.536194 1182.927734,455.827698 
	C1182.671509,454.148102 1181.470581,452.612640 1180.705811,451.010620 
	C1179.770752,452.130402 1178.720947,453.173859 1177.917603,454.381409 
	C1166.443359,471.630585 1150.862549,482.234650 1130.023804,485.074860 
	C1110.793091,487.695892 1092.286255,485.824799 1074.961670,476.908752 
	C1060.183350,469.303192 1048.936646,457.833801 1040.996094,443.149139 
	C1033.358765,429.024963 1029.457275,413.925781 1027.915894,397.980927 
	C1025.546997,373.476593 1028.585205,349.939178 1040.081055,328.030121 
	C1052.734741,303.914673 1072.672729,289.287750 1099.537964,283.919037 
	C1116.428345,280.543701 1132.958618,281.094788 1149.101929,287.055298 
	C1159.214600,290.789093 1168.295044,296.304413 1174.835083,305.256805 
	C1175.093506,305.610565 1175.611816,305.774567 1176.649414,306.433960 
	C1176.649414,272.484222 1176.649414,239.021683 1176.649414,205.280853 
	C1196.299438,205.280853 1215.370117,205.280853 1235.000000,205.280853 
	C1235.000000,286.656403 1235.000000,368.078186 1235.000000,450.000000 
M1087.000000,393.187561 
	C1087.333740,395.093079 1087.617798,397.008850 1088.009521,398.902374 
	C1089.859863,407.845032 1093.117920,416.148590 1099.447266,422.938751 
	C1110.689575,434.999878 1124.590332,439.209473 1140.563110,435.907684 
	C1151.525757,433.641602 1160.241455,427.726379 1167.127319,418.625336 
	C1178.929321,403.026764 1179.072144,385.228058 1175.564087,367.749084 
	C1170.852417,344.273834 1149.863281,328.385773 1124.273438,331.933258 
	C1107.344849,334.280029 1097.154785,344.299347 1091.007202,359.433685 
	C1086.712891,370.005798 1086.687378,381.106506 1087.000000,393.187561 
z"/>
<path fill="#FFFFFF" opacity="1.000000" stroke="none" 
	d="
M1667.000000,320.000000 
	C1667.000000,374.805573 1667.000000,429.111145 1667.000000,483.733643 
	C1665.546387,483.830627 1664.278687,483.959717 1663.008423,483.993164 
	C1649.924438,484.337708 1636.838257,484.611420 1623.757202,485.039520 
	C1620.547241,485.144623 1619.206177,484.432953 1618.852295,480.735413 
	C1617.956299,471.374756 1616.355713,462.080078 1614.957031,452.771027 
	C1614.807251,451.773895 1614.127563,450.856354 1613.645508,449.795868 
	C1608.779663,455.723633 1604.443726,461.510986 1599.585205,466.820068 
	C1589.518799,477.819672 1576.573242,482.961670 1562.010010,485.077240 
	C1544.308594,487.648651 1527.099976,486.015167 1510.823975,478.832672 
	C1496.330322,472.436615 1484.939941,461.775269 1476.309570,448.569244 
	C1467.747681,435.467804 1462.970947,420.813965 1461.019897,405.285034 
	C1460.226807,398.971771 1458.909790,392.600861 1459.146240,386.305573 
	C1459.779785,369.432922 1461.414673,352.648315 1468.008545,336.788605 
	C1473.324341,324.002747 1480.759888,312.652771 1491.123657,303.441040 
	C1502.299316,293.507721 1515.317505,286.723389 1530.033936,284.172546 
	C1539.199341,282.583923 1548.712402,281.668152 1557.967407,282.206512 
	C1577.642334,283.350891 1595.110107,290.118774 1608.637695,306.746918 
	C1608.637695,272.489136 1608.637695,239.029129 1608.637695,205.285828 
	C1628.289185,205.285828 1647.359985,205.285828 1667.000000,205.285828 
	C1667.000000,243.315231 1667.000000,281.407623 1667.000000,320.000000 
M1575.290649,333.001404 
	C1568.901855,332.666840 1562.446289,331.583710 1556.137207,332.145081 
	C1540.378784,333.547241 1530.197998,343.135376 1524.140747,356.981323 
	C1518.542603,369.777802 1517.699341,383.337494 1519.955200,397.164856 
	C1523.004761,415.856384 1535.669556,433.311951 1556.971191,436.320312 
	C1574.348755,438.774475 1590.636230,431.030426 1599.913208,418.065918 
	C1611.307373,402.142578 1611.186890,383.936615 1607.255005,366.017517 
	C1603.607666,349.395691 1592.281860,338.584229 1575.290649,333.001404 
z"/>
<path fill="#FFFFFF" opacity="1.000000" stroke="none" 
	d="
M301.000000,323.000000 
	C318.475922,323.000000 335.451874,323.000000 352.713440,323.000000 
	C352.713440,339.287598 352.713440,355.358917 352.713440,371.828979 
	C318.374542,371.828979 283.970123,371.828979 249.170654,371.828979 
	C249.170654,409.292786 249.170654,446.363495 249.170654,483.716309 
	C229.039566,483.716309 209.302048,483.716309 189.281616,483.716309 
	C189.281616,391.372437 189.281616,298.974487 189.281616,206.288116 
	C248.950089,206.288116 308.684052,206.288116 368.709229,206.288116 
	C368.709229,222.612381 368.709229,239.017136 368.709229,255.819855 
	C329.049835,255.819855 289.312805,255.819855 249.288589,255.819855 
	C249.288589,278.283875 249.288589,300.354523 249.288589,323.000000 
	C266.308990,323.000000 283.404510,323.000000 301.000000,323.000000 
z"/>
<path fill="#FFFFFF" opacity="1.000000" stroke="none" 
	d="
M774.833862,284.000122 
	C776.204590,284.443787 777.221069,284.745758 777.918457,285.391998 
	C778.255127,285.703888 777.998901,286.663544 777.998901,287.329895 
	C778.000061,352.649139 777.999939,417.968414 777.999939,483.764313 
	C762.123962,484.272034 746.314453,484.777649 729.957764,485.300720 
	C728.014893,474.055634 726.147644,463.248383 724.057922,451.153625 
	C722.280334,452.698792 720.152344,453.743805 719.273743,455.437134 
	C710.839355,471.691589 696.997559,481.344818 679.665344,484.436218 
	C652.888306,489.212189 627.468567,485.735352 607.452332,464.826019 
	C596.774292,453.671570 591.108093,439.786652 589.116943,424.602722 
	C588.112854,416.946136 588.066223,409.129700 588.045288,401.384308 
	C587.944519,364.057434 588.000000,326.730133 588.000000,289.402985 
	C588.000000,287.764771 588.000000,286.126556 588.000000,284.250549 
	C607.693726,284.250549 627.096741,284.250549 647.000000,284.250549 
	C647.000000,286.060516 647.000000,287.835541 647.000000,289.610565 
	C647.000000,326.771088 646.927368,363.931824 647.046509,401.091949 
	C647.080078,411.560608 650.336853,421.119904 658.605042,427.892334 
	C666.026428,433.971191 674.598267,436.737152 684.653381,435.206512 
	C705.494202,432.034088 713.859009,417.748749 717.963196,399.348206 
	C718.631836,396.350220 718.951111,393.212250 718.957031,390.138031 
	C719.024536,354.985138 719.000000,319.832062 719.000000,284.000000 
	C737.520142,284.000000 755.934204,284.000000 774.833862,284.000122 
z"/>
<path fill="#FFFFFF" opacity="1.000000" stroke="none" 
	d="
M812.000000,350.000000 
	C812.000000,327.859619 812.000000,306.219238 812.000000,284.262726 
	C813.458313,284.166870 814.726379,284.041718 815.997009,284.006500 
	C828.413086,283.662384 840.841980,283.558563 853.239136,282.876221 
	C857.500427,282.641663 859.355530,284.375000 859.931641,287.981537 
	C861.721619,299.188202 863.330811,310.423737 865.024780,321.645874 
	C865.089050,322.071442 865.305298,322.473999 865.680298,323.539642 
	C868.974243,318.104156 871.729492,312.973511 875.029480,308.221130 
	C885.291138,293.442963 899.732605,285.590485 917.362488,282.957947 
	C930.848694,280.944183 944.132568,281.579987 957.117737,285.628418 
	C981.532227,293.240173 995.786926,310.577087 1001.800964,334.730988 
	C1004.023804,343.658447 1004.790527,353.139160 1004.863342,362.378235 
	C1005.181274,402.691589 1005.000000,443.008881 1005.000000,483.662292 
	C985.817932,483.662292 966.747437,483.662292 947.000000,483.662292 
	C947.000000,482.141602 947.000000,480.390594 947.000000,478.639587 
	C947.000000,443.314270 947.214966,407.986877 946.880554,372.664734 
	C946.767334,360.697327 944.663818,348.766266 934.744019,340.511780 
	C930.950989,337.355530 925.963745,334.819183 921.149353,333.855560 
	C905.467529,330.716675 890.917419,334.298706 880.653809,348.656342 
	C873.858765,358.161804 871.010010,368.602570 871.005066,380.042267 
	C870.990784,412.868164 871.000000,445.694031 871.000000,478.519928 
	C871.000000,480.162018 871.000000,481.804077 871.000000,483.722076 
	C851.362793,483.722076 831.960205,483.722076 812.000000,483.722076 
	C812.000000,439.343445 812.000000,394.921722 812.000000,350.000000 
z"/>
<path fill="#FFFFFF" opacity="1.000000" stroke="none" 
	d="
M548.786072,309.287903 
	C560.152039,323.065033 567.037048,338.284851 569.101196,355.857086 
	C571.585693,377.007721 569.737000,397.531921 561.946777,417.362396 
	C557.870972,427.737701 552.436707,437.399506 545.400024,446.163330 
	C529.056946,466.517914 507.384674,478.077576 482.446808,483.656067 
	C468.630920,486.746613 454.478729,486.879028 440.287079,485.102173 
	C425.922943,483.303711 412.869324,478.612396 400.900726,470.479462 
	C384.677277,459.455200 375.063049,443.847931 370.185333,425.365723 
	C367.801575,416.333588 366.091980,406.776154 366.236267,397.490051 
	C366.648804,370.938049 373.016602,345.989563 389.877625,324.621460 
	C403.735016,307.059845 421.082428,294.628143 442.530304,287.737518 
	C458.377106,282.646332 474.587494,280.928680 490.953400,282.166962 
	C508.742218,283.512878 525.235657,289.434814 539.615234,300.309723 
	C542.905579,302.798187 545.581726,306.098969 548.786072,309.287903 
M501.026611,414.457428 
	C511.031250,396.526031 513.511047,377.458252 508.732117,357.637848 
	C506.797455,349.614044 503.028076,342.066711 496.019531,337.046967 
	C477.035400,323.450073 452.910095,330.409119 440.493439,347.449066 
	C425.558289,367.945312 421.843170,391.166626 430.081207,415.555420 
	C434.427948,428.423981 443.711517,436.608154 457.298828,437.828094 
	C476.270264,439.531464 490.546906,431.025146 501.026611,414.457428 
z"/>
<path fill="#FFFFFF" opacity="1.000000" stroke="none" 
	d="
M1432.257812,449.694275 
	C1432.326660,450.810425 1432.443481,451.860016 1431.975220,452.422607 
	C1422.572021,463.718445 1410.432373,471.308655 1397.114380,476.888458 
	C1377.149780,485.253021 1356.008545,487.430725 1334.677490,485.845398 
	C1310.773071,484.068817 1289.458496,475.639069 1273.475708,456.876617 
	C1265.225708,447.191742 1260.231689,435.726257 1256.933472,423.419495 
	C1253.867554,411.979980 1253.338867,400.323303 1254.135864,388.730682 
	C1255.817261,364.273499 1263.068115,341.468262 1278.536011,322.139893 
	C1293.868042,302.981323 1313.819580,290.556091 1337.882080,284.987701 
	C1349.651733,282.264038 1361.619019,281.092285 1373.587158,282.101166 
	C1404.410156,284.699402 1427.287598,299.035492 1438.597412,330.667114 
	C1441.646362,339.194580 1441.694092,348.811615 1442.982666,357.947815 
	C1444.716309,370.238342 1442.055176,382.048920 1439.155640,393.890503 
	C1438.282471,397.456726 1436.699341,398.065613 1433.485840,398.058136 
	C1394.820068,397.968292 1356.153809,398.000000 1317.487793,398.000000 
	C1315.838989,398.000000 1314.190063,398.000000 1312.015625,398.000000 
	C1312.207764,405.930084 1314.610474,412.956482 1318.151855,419.585419 
	C1326.343140,434.918976 1339.738770,440.784790 1356.595093,441.091858 
	C1375.453735,441.435364 1391.609619,435.506531 1405.159546,422.384460 
	C1406.428101,421.156006 1408.035156,420.277313 1410.004517,418.863281 
	C1417.304565,428.983063 1424.668945,439.192047 1432.257812,449.694275 
M1317.392944,358.085022 
	C1316.540527,360.919373 1315.687988,363.753723 1314.711670,367.000000 
	C1337.206421,367.000000 1359.016968,367.000000 1380.827515,367.000000 
	C1390.977173,367.000000 1390.793457,367.013702 1390.038940,356.889191 
	C1388.343262,334.138641 1370.265259,321.477051 1347.225098,328.957764 
	C1332.759033,333.654633 1323.774658,343.962128 1317.392944,358.085022 
z"/>
<path fill="#000000" opacity="1.000000" stroke="none" 
	d="
M1087.000000,392.716309 
	C1086.687378,381.106506 1086.712891,370.005798 1091.007202,359.433685 
	C1097.154785,344.299347 1107.344849,334.280029 1124.273438,331.933258 
	C1149.863281,328.385773 1170.852417,344.273834 1175.564087,367.749084 
	C1179.072144,385.228058 1178.929321,403.026764 1167.127319,418.625336 
	C1160.241455,427.726379 1151.525757,433.641602 1140.563110,435.907684 
	C1124.590332,439.209473 1110.689575,434.999878 1099.447266,422.938751 
	C1093.117920,416.148590 1089.859863,407.845032 1088.009521,398.902374 
	C1087.617798,397.008850 1087.333740,395.093079 1087.000000,392.716309 
z"/>
<path fill="#000000" opacity="1.000000" stroke="none" 
	d="
M1575.712402,333.013367 
	C1592.281860,338.584229 1603.607666,349.395691 1607.255005,366.017517 
	C1611.186890,383.936615 1611.307373,402.142578 1599.913208,418.065918 
	C1590.636230,431.030426 1574.348755,438.774475 1556.971191,436.320312 
	C1535.669556,433.311951 1523.004761,415.856384 1519.955200,397.164856 
	C1517.699341,383.337494 1518.542603,369.777802 1524.140747,356.981323 
	C1530.197998,343.135376 1540.378784,333.547241 1556.137207,332.145081 
	C1562.446289,331.583710 1568.901855,332.666840 1575.712402,333.013367 
z"/>
<path fill="#000000" opacity="1.000000" stroke="none" 
	d="
M500.766846,414.728668 
	C490.546906,431.025146 476.270264,439.531464 457.298828,437.828094 
	C443.711517,436.608154 434.427948,428.423981 430.081207,415.555420 
	C421.843170,391.166626 425.558289,367.945312 440.493439,347.449066 
	C452.910095,330.409119 477.035400,323.450073 496.019531,337.046967 
	C503.028076,342.066711 506.797455,349.614044 508.732117,357.637848 
	C513.511047,377.458252 511.031250,396.526031 500.766846,414.728668 
z"/>
<path fill="#000000" opacity="1.000000" stroke="none" 
	d="
M1317.671021,357.798920 
	C1323.774658,343.962128 1332.759033,333.654633 1347.225098,328.957764 
	C1370.265259,321.477051 1388.343262,334.138641 1390.038940,356.889191 
	C1390.793457,367.013702 1390.977173,367.000000 1380.827515,367.000000 
	C1359.016968,367.000000 1337.206421,367.000000 1314.711670,367.000000 
	C1315.687988,363.753723 1316.540527,360.919373 1317.671021,357.798920 
z"/>
</svg>